{
    "asset" : {
        "generator" : "Khronos glTF Blender I/O v1.7.33",
        "version" : "2.0"
    },
    "scene" : 0,
    "scenes" : [
        {
            "name" : "Scene",
            "nodes" : [
                0,
                1,
                2,
                3,
                4,
                5,
                6,
                7,
                8,
                9,
                10
            ]
        }
    ],
    "nodes" : [
        {
            "mesh" : 0,
            "name" : "Cylinder",
            "scale" : [
                1,
                2.85758900642395,
                1
            ],
            "translation" : [
                0.01397693157196045,
                -0.000492095947265625,
                0.004921911749988794
            ]
        },
        {
            "mesh" : 1,
            "name" : "Cylinder.002",
            "scale" : [
                0.6705768704414368,
                0.39624664187431335,
                0.6705768704414368
            ],
            "translation" : [
                0,
                2.6946659088134766,
                0
            ]
        },
        {
            "mesh" : 2,
            "name" : "Cylinder.003",
            "scale" : [
                0.5344870686531067,
                0.40322449803352356,
                0.5191108584403992
            ],
            "translation" : [
                0,
                -3.0691208839416504,
                0
            ]
        },
        {
            "mesh" : 3,
            "name" : "Cylinder.004",
            "scale" : [
                -0.3052515983581543,
                -0.3052515983581543,
                -0.3052515983581543
            ],
            "translation" : [
                0,
                -3.650247573852539,
                0
            ]
        },
        {
            "mesh" : 4,
            "name" : "Cylinder.005",
            "scale" : [
                0.0950574278831482,
                1,
                0.0950574278831482
            ],
            "translation" : [
                0,
                -4.614068031311035,
                0
            ]
        },
        {
            "mesh" : 5,
            "name" : "Sphere",
            "scale" : [
                0.4739476442337036,
                0.4739476442337036,
                0.4739476442337036
            ],
            "translation" : [
                0,
                -5.297813415527344,
                0
            ]
        },
        {
            "mesh" : 6,
            "name" : "Cylinder.001",
            "scale" : [
                1,
                2.85758900642395,
                1
            ],
            "translation" : [
                0.01397693157196045,
                -0.000492095947265625,
                0.004921911749988794
            ]
        },
        {
            "mesh" : 7,
            "name" : "Torus",
            "rotation" : [
                0.7334924340248108,
                0,
                0,
                -0.6796976923942566
            ],
            "scale" : [
                -0.6168854236602783,
                -0.6168854236602783,
                -0.6168854236602783
            ],
            "translation" : [
                1.7634519338607788,
                3.106337547302246,
                0
            ]
        },
        {
            "mesh" : 8,
            "name" : "Torus.001",
            "rotation" : [
                0.7334924340248108,
                0,
                0,
                -0.6796976923942566
            ],
            "scale" : [
                -0.6168854236602783,
                -0.6168854236602783,
                -0.6168854236602783
            ],
            "translation" : [
                -1.7458175420761108,
                3.106337547302246,
                0
            ]
        },
        {
            "mesh" : 9,
            "name" : "Sphere.001",
            "scale" : [
                0.16665521264076233,
                0.3091000020503998,
                0.3091000020503998
            ]
        },
        {
            "mesh" : 10,
            "name" : "Sphere.003",
            "rotation" : [
                -0.016367746517062187,
                -0.011867089197039604,
                -0.12422481179237366,
                0.9920481443405151
            ],
            "scale" : [
                0.16665521264076233,
                0.3091000020503998,
                0.3091000020503998
            ],
            "translation" : [
                0.9414680600166321,
                -1.9953680038452148,
                0.23332077264785767
            ]
        }
    ],
    "meshes" : [
        {
            "name" : "Cylinder",
            "primitives" : [
                {
                    "attributes" : {
                        "POSITION" : 0,
                        "NORMAL" : 1,
                        "TEXCOORD_0" : 2
                    },
                    "indices" : 3
                }
            ]
        },
        {
            "name" : "Cylinder.002",
            "primitives" : [
                {
                    "attributes" : {
                        "POSITION" : 4,
                        "NORMAL" : 5,
                        "TEXCOORD_0" : 6
                    },
                    "indices" : 7
                }
            ]
        },
        {
            "name" : "Cylinder.003",
            "primitives" : [
                {
                    "attributes" : {
                        "POSITION" : 8,
                        "NORMAL" : 9,
                        "TEXCOORD_0" : 10
                    },
                    "indices" : 11
                }
            ]
        },
        {
            "name" : "Cylinder.004",
            "primitives" : [
                {
                    "attributes" : {
                        "POSITION" : 12,
                        "NORMAL" : 13,
                        "TEXCOORD_0" : 14
                    },
                    "indices" : 15
                }
            ]
        },
        {
            "name" : "Cylinder.005",
            "primitives" : [
                {
                    "attributes" : {
                        "POSITION" : 16,
                        "NORMAL" : 17,
                        "TEXCOORD_0" : 18
                    },
                    "indices" : 19
                }
            ]
        },
        {
            "name" : "Sphere",
            "primitives" : [
                {
                    "attributes" : {
                        "POSITION" : 20,
                        "NORMAL" : 21,
                        "TEXCOORD_0" : 22
                    },
                    "indices" : 23
                }
            ]
        },
        {
            "name" : "Cylinder.006",
            "primitives" : [
                {
                    "attributes" : {
                        "POSITION" : 24,
                        "NORMAL" : 25,
                        "TEXCOORD_0" : 26
                    },
                    "indices" : 27
                }
            ]
        },
        {
            "name" : "Torus",
            "primitives" : [
                {
                    "attributes" : {
                        "POSITION" : 28,
                        "NORMAL" : 29,
                        "TEXCOORD_0" : 30
                    },
                    "indices" : 31
                }
            ]
        },
        {
            "name" : "Torus.001",
            "primitives" : [
                {
                    "attributes" : {
                        "POSITION" : 32,
                        "NORMAL" : 33,
                        "TEXCOORD_0" : 34
                    },
                    "indices" : 31
                }
            ]
        },
        {
            "name" : "Sphere.001",
            "primitives" : [
                {
                    "attributes" : {
                        "POSITION" : 35,
                        "NORMAL" : 36,
                        "TEXCOORD_0" : 37
                    },
                    "indices" : 38
                }
            ]
        },
        {
            "name" : "Sphere.004",
            "primitives" : [
                {
                    "attributes" : {
                        "POSITION" : 39,
                        "NORMAL" : 40,
                        "TEXCOORD_0" : 41
                    },
                    "indices" : 38
                }
            ]
        }
    ],
    "accessors" : [
        {
            "bufferView" : 0,
            "componentType" : 5126,
            "count" : 3564,
            "max" : [
                1,
                1,
                1
            ],
            "min" : [
                -1,
                -1,
                -1
            ],
            "type" : "VEC3"
        },
        {
            "bufferView" : 1,
            "componentType" : 5126,
            "count" : 3564,
            "type" : "VEC3"
        },
        {
            "bufferView" : 2,
            "componentType" : 5126,
            "count" : 3564,
            "type" : "VEC2"
        },
        {
            "bufferView" : 3,
            "componentType" : 5123,
            "count" : 12840,
            "type" : "SCALAR"
        },
        {
            "bufferView" : 4,
            "componentType" : 5126,
            "count" : 1682,
            "max" : [
                1.2250046730041504,
                7.13247537612915,
                1.2250043153762817
            ],
            "min" : [
                -1.225003957748413,
                -1,
                -1.2250043153762817
            ],
            "type" : "VEC3"
        },
        {
            "bufferView" : 5,
            "componentType" : 5126,
            "count" : 1682,
            "type" : "VEC3"
        },
        {
            "bufferView" : 6,
            "componentType" : 5126,
            "count" : 1682,
            "type" : "VEC2"
        },
        {
            "bufferView" : 7,
            "componentType" : 5123,
            "count" : 9108,
            "type" : "SCALAR"
        },
        {
            "bufferView" : 8,
            "componentType" : 5126,
            "count" : 965,
            "max" : [
                1,
                1,
                1
            ],
            "min" : [
                -1,
                -1,
                -1
            ],
            "type" : "VEC3"
        },
        {
            "bufferView" : 9,
            "componentType" : 5126,
            "count" : 965,
            "type" : "VEC3"
        },
        {
            "bufferView" : 10,
            "componentType" : 5126,
            "count" : 965,
            "type" : "VEC2"
        },
        {
            "bufferView" : 11,
            "componentType" : 5123,
            "count" : 3348,
            "type" : "SCALAR"
        },
        {
            "bufferView" : 12,
            "componentType" : 5126,
            "count" : 962,
            "max" : [
                1,
                1.0000001192092896,
                1
            ],
            "min" : [
                -1,
                -1,
                -1
            ],
            "type" : "VEC3"
        },
        {
            "bufferView" : 13,
            "componentType" : 5126,
            "count" : 962,
            "type" : "VEC3"
        },
        {
            "bufferView" : 14,
            "componentType" : 5126,
            "count" : 962,
            "type" : "VEC2"
        },
        {
            "bufferView" : 15,
            "componentType" : 5123,
            "count" : 3348,
            "type" : "SCALAR"
        },
        {
            "bufferView" : 16,
            "componentType" : 5126,
            "count" : 322,
            "max" : [
                1,
                1,
                1
            ],
            "min" : [
                -1,
                -1,
                -1
            ],
            "type" : "VEC3"
        },
        {
            "bufferView" : 17,
            "componentType" : 5126,
            "count" : 322,
            "type" : "VEC3"
        },
        {
            "bufferView" : 18,
            "componentType" : 5126,
            "count" : 322,
            "type" : "VEC2"
        },
        {
            "bufferView" : 19,
            "componentType" : 5123,
            "count" : 948,
            "type" : "SCALAR"
        },
        {
            "bufferView" : 20,
            "componentType" : 5126,
            "count" : 691,
            "max" : [
                0.9999997019767761,
                1,
                0.9999994039535522
            ],
            "min" : [
                -0.9999990463256836,
                -1,
                -0.9999987483024597
            ],
            "type" : "VEC3"
        },
        {
            "bufferView" : 21,
            "componentType" : 5126,
            "count" : 691,
            "type" : "VEC3"
        },
        {
            "bufferView" : 22,
            "componentType" : 5126,
            "count" : 691,
            "type" : "VEC2"
        },
        {
            "bufferView" : 23,
            "componentType" : 5123,
            "count" : 3648,
            "type" : "SCALAR"
        },
        {
            "bufferView" : 24,
            "componentType" : 5126,
            "count" : 1491,
            "max" : [
                1.322778344154358,
                1.1936874389648438,
                1.3227784633636475
            ],
            "min" : [
                -1.3227784633636475,
                0.9999991059303284,
                -1.3227784633636475
            ],
            "type" : "VEC3"
        },
        {
            "bufferView" : 25,
            "componentType" : 5126,
            "count" : 1491,
            "type" : "VEC3"
        },
        {
            "bufferView" : 26,
            "componentType" : 5126,
            "count" : 1491,
            "type" : "VEC2"
        },
        {
            "bufferView" : 27,
            "componentType" : 5123,
            "count" : 6720,
            "type" : "SCALAR"
        },
        {
            "bufferView" : 28,
            "componentType" : 5126,
            "count" : 637,
            "max" : [
                1.25,
                0.25,
                1.25
            ],
            "min" : [
                -1.25,
                -0.25,
                -1.25
            ],
            "type" : "VEC3"
        },
        {
            "bufferView" : 29,
            "componentType" : 5126,
            "count" : 637,
            "type" : "VEC3"
        },
        {
            "bufferView" : 30,
            "componentType" : 5126,
            "count" : 637,
            "type" : "VEC2"
        },
        {
            "bufferView" : 31,
            "componentType" : 5123,
            "count" : 3456,
            "type" : "SCALAR"
        },
        {
            "bufferView" : 32,
            "componentType" : 5126,
            "count" : 637,
            "max" : [
                1.25,
                0.25,
                1.25
            ],
            "min" : [
                -1.25,
                -0.25,
                -1.25
            ],
            "type" : "VEC3"
        },
        {
            "bufferView" : 33,
            "componentType" : 5126,
            "count" : 637,
            "type" : "VEC3"
        },
        {
            "bufferView" : 34,
            "componentType" : 5126,
            "count" : 637,
            "type" : "VEC2"
        },
        {
            "bufferView" : 35,
            "componentType" : 5126,
            "count" : 448,
            "max" : [
                1.4171092510223389,
                0.3505887985229492,
                0.4381483793258667
            ],
            "min" : [
                -8.076808200030428e-08,
                -1.6314129829406738,
                -0.9807852506637573
            ],
            "type" : "VEC3"
        },
        {
            "bufferView" : 36,
            "componentType" : 5126,
            "count" : 448,
            "type" : "VEC3"
        },
        {
            "bufferView" : 37,
            "componentType" : 5126,
            "count" : 448,
            "type" : "VEC2"
        },
        {
            "bufferView" : 38,
            "componentType" : 5123,
            "count" : 2004,
            "type" : "SCALAR"
        },
        {
            "bufferView" : 39,
            "componentType" : 5126,
            "count" : 448,
            "max" : [
                1.4171092510223389,
                0.3505887985229492,
                0.4381483793258667
            ],
            "min" : [
                -8.076808200030428e-08,
                -1.6314129829406738,
                -0.9807852506637573
            ],
            "type" : "VEC3"
        },
        {
            "bufferView" : 40,
            "componentType" : 5126,
            "count" : 448,
            "type" : "VEC3"
        },
        {
            "bufferView" : 41,
            "componentType" : 5126,
            "count" : 448,
            "type" : "VEC2"
        }
    ],
    "bufferViews" : [
        {
            "buffer" : 0,
            "byteLength" : 42768,
            "byteOffset" : 0
        },
        {
            "buffer" : 0,
            "byteLength" : 42768,
            "byteOffset" : 42768
        },
        {
            "buffer" : 0,
            "byteLength" : 28512,
            "byteOffset" : 85536
        },
        {
            "buffer" : 0,
            "byteLength" : 25680,
            "byteOffset" : 114048
        },
        {
            "buffer" : 0,
            "byteLength" : 20184,
            "byteOffset" : 139728
        },
        {
            "buffer" : 0,
            "byteLength" : 20184,
            "byteOffset" : 159912
        },
        {
            "buffer" : 0,
            "byteLength" : 13456,
            "byteOffset" : 180096
        },
        {
            "buffer" : 0,
            "byteLength" : 18216,
            "byteOffset" : 193552
        },
        {
            "buffer" : 0,
            "byteLength" : 11580,
            "byteOffset" : 211768
        },
        {
            "buffer" : 0,
            "byteLength" : 11580,
            "byteOffset" : 223348
        },
        {
            "buffer" : 0,
            "byteLength" : 7720,
            "byteOffset" : 234928
        },
        {
            "buffer" : 0,
            "byteLength" : 6696,
            "byteOffset" : 242648
        },
        {
            "buffer" : 0,
            "byteLength" : 11544,
            "byteOffset" : 249344
        },
        {
            "buffer" : 0,
            "byteLength" : 11544,
            "byteOffset" : 260888
        },
        {
            "buffer" : 0,
            "byteLength" : 7696,
            "byteOffset" : 272432
        },
        {
            "buffer" : 0,
            "byteLength" : 6696,
            "byteOffset" : 280128
        },
        {
            "buffer" : 0,
            "byteLength" : 3864,
            "byteOffset" : 286824
        },
        {
            "buffer" : 0,
            "byteLength" : 3864,
            "byteOffset" : 290688
        },
        {
            "buffer" : 0,
            "byteLength" : 2576,
            "byteOffset" : 294552
        },
        {
            "buffer" : 0,
            "byteLength" : 1896,
            "byteOffset" : 297128
        },
        {
            "buffer" : 0,
            "byteLength" : 8292,
            "byteOffset" : 299024
        },
        {
            "buffer" : 0,
            "byteLength" : 8292,
            "byteOffset" : 307316
        },
        {
            "buffer" : 0,
            "byteLength" : 5528,
            "byteOffset" : 315608
        },
        {
            "buffer" : 0,
            "byteLength" : 7296,
            "byteOffset" : 321136
        },
        {
            "buffer" : 0,
            "byteLength" : 17892,
            "byteOffset" : 328432
        },
        {
            "buffer" : 0,
            "byteLength" : 17892,
            "byteOffset" : 346324
        },
        {
            "buffer" : 0,
            "byteLength" : 11928,
            "byteOffset" : 364216
        },
        {
            "buffer" : 0,
            "byteLength" : 13440,
            "byteOffset" : 376144
        },
        {
            "buffer" : 0,
            "byteLength" : 7644,
            "byteOffset" : 389584
        },
        {
            "buffer" : 0,
            "byteLength" : 7644,
            "byteOffset" : 397228
        },
        {
            "buffer" : 0,
            "byteLength" : 5096,
            "byteOffset" : 404872
        },
        {
            "buffer" : 0,
            "byteLength" : 6912,
            "byteOffset" : 409968
        },
        {
            "buffer" : 0,
            "byteLength" : 7644,
            "byteOffset" : 416880
        },
        {
            "buffer" : 0,
            "byteLength" : 7644,
            "byteOffset" : 424524
        },
        {
            "buffer" : 0,
            "byteLength" : 5096,
            "byteOffset" : 432168
        },
        {
            "buffer" : 0,
            "byteLength" : 5376,
            "byteOffset" : 437264
        },
        {
            "buffer" : 0,
            "byteLength" : 5376,
            "byteOffset" : 442640
        },
        {
            "buffer" : 0,
            "byteLength" : 3584,
            "byteOffset" : 448016
        },
        {
            "buffer" : 0,
            "byteLength" : 4008,
            "byteOffset" : 451600
        },
        {
            "buffer" : 0,
            "byteLength" : 5376,
            "byteOffset" : 455608
        },
        {
            "buffer" : 0,
            "byteLength" : 5376,
            "byteOffset" : 460984
        },
        {
            "buffer" : 0,
            "byteLength" : 3584,
            "byteOffset" : 466360
        }
    ],
    "buffers" : [
        {
            "byteLength" : 469944,
            "uri" : "data:application/octet-stream;base64,"
        }
    ]
}
